# xmcd
#
# Track frame offsets: 
#        150
#        42712
#        78791
#        99291
#        137383
#        169182
#        183002
#
# Disc length: 3062 seconds
#
# Revision: 0
# Processed by: cddbd v1.5.2PL0 Copyright (c) Steve Scherf et al.
# Submitted via: ExactAudioCopy v0.99pb5
#
DISCID=4a0bf407
DTITLE=Gongotronics - Konono nr 1
DYEAR=2004
DGENRE=Folk/Rock
TTITLE0=Lufuala Ndongo
TTITLE1=Masikulu
TTITLE2=Kule kule
TTITLE3=Ungude wele wele
TTITLE4=Paradiso
TTITLE5=Kule kule reprise
TTITLE6=Mama Liza
EXTD=
EXTT0=
EXTT1=
EXTT2=
EXTT3=
EXTT4=
EXTT5=
EXTT6=
PLAYORDER=
